<?xml version="1.0" encoding="UTF-8" standalone="no"?>
<!DOCTYPE svg PUBLIC "-//W3C//DTD SVG 1.1//EN" "http://www.w3.org/Graphics/SVG/1.1/DTD/svg11.dtd">
<svg width="100%" height="100%" viewBox="0 0 1024 165" version="1.1" xmlns="http://www.w3.org/2000/svg" xmlns:xlink="http://www.w3.org/1999/xlink" xml:space="preserve" xmlns:serif="http://www.serif.com/" style="fill-rule:evenodd;clip-rule:evenodd;stroke-linejoin:round;stroke-miterlimit:2;">
    <g id="Logo-Text" serif:id="Logo Text" transform="matrix(1.02091,0,0,1.02091,148.063,-45.4412)">
        <text x="64.371px" y="181.212px" style="font-family:'OpenSans-Regular', 'Open Sans';font-size:162.157px;fill:rgb(235,235,235);">R<tspan x="184.884px 294.629px 415.142px 534.863px " y="181.212px 181.212px 181.212px 181.212px ">TRKR</tspan></text>
    </g>
    <g id="cycle_24dp_E8EAED_FILL0_wght400_GRAD0_opsz24.svg" transform="matrix(7.51683,0,0,7.51683,89.5808,75.3332)">
        <g transform="matrix(1,0,0,1,-12,-12)">
            <path d="M7.85,21.125C6.117,20.325 4.708,19.117 3.625,17.5C2.542,15.883 2,14.058 2,12.025C2,11.592 2.021,11.167 2.063,10.75C2.104,10.333 2.175,9.925 2.275,9.525L1.125,10.2L0.125,8.475L4.9,5.725L7.65,10.475L5.9,11.475L4.55,9.125C4.367,9.575 4.229,10.042 4.138,10.525C4.046,11.008 4,11.508 4,12.025C4,13.642 4.442,15.112 5.325,16.438C6.208,17.763 7.383,18.742 8.85,19.375L7.85,21.125ZM15.5,9L15.5,7L18.225,7C17.458,6.05 16.533,5.313 15.45,4.787C14.367,4.262 13.217,4 12,4C11.083,4 10.217,4.142 9.4,4.425C8.583,4.708 7.833,5.108 7.15,5.625L6.15,3.875C6.983,3.292 7.892,2.833 8.875,2.5C9.858,2.167 10.9,2 12,2C13.317,2 14.575,2.246 15.775,2.737C16.975,3.229 18.05,3.942 19,4.875L19,3.5L21,3.5L21,9L15.5,9ZM14.85,24L10.075,21.25L12.825,16.5L14.55,17.5L13.125,19.95C15.092,19.667 16.729,18.775 18.038,17.275C19.346,15.775 20,14.017 20,12C20,11.817 19.996,11.646 19.988,11.487C19.979,11.329 19.958,11.167 19.925,11L21.95,11C21.967,11.167 21.979,11.329 21.988,11.487C21.996,11.646 22,11.817 22,12C22,14.25 21.329,16.262 19.988,18.038C18.646,19.813 16.9,21.008 14.75,21.625L15.85,22.275L14.85,24Z" style="fill:rgb(232,234,237);fill-rule:nonzero;"/>
        </g>
    </g>
    <g id="cycle_24dp_E8EAED_FILL0_wght400_GRAD0_opsz24.svg1" serif:id="cycle_24dp_E8EAED_FILL0_wght400_GRAD0_opsz24.svg" transform="matrix(7.96381,0.00730976,0.00689949,-7.51683,941.437,87.4342)">
        <g transform="matrix(1,0,0,1,-12,-12)">
            <path d="M7.85,21.125C6.117,20.325 4.708,19.117 3.625,17.5C2.542,15.883 2,14.058 2,12.025C2,11.592 2.021,11.167 2.063,10.75C2.104,10.333 2.175,9.925 2.275,9.525L1.125,10.2L0.125,8.475L4.9,5.725L7.65,10.475L5.9,11.475L4.55,9.125C4.367,9.575 4.229,10.042 4.138,10.525C4.046,11.008 4,11.508 4,12.025C4,13.642 4.442,15.112 5.325,16.438C6.208,17.763 7.383,18.742 8.85,19.375L7.85,21.125ZM15.5,9L15.5,7L18.225,7C17.458,6.05 16.533,5.313 15.45,4.787C14.367,4.262 13.217,4 12,4C11.083,4 10.217,4.142 9.4,4.425C8.583,4.708 7.833,5.108 7.15,5.625L6.15,3.875C6.983,3.292 7.892,2.833 8.875,2.5C9.858,2.167 10.9,2 12,2C13.317,2 14.575,2.246 15.775,2.737C16.975,3.229 18.05,3.942 19,4.875L19,3.5L21,3.5L21,9L15.5,9ZM14.85,24L10.075,21.25L12.825,16.5L14.55,17.5L13.125,19.95C15.092,19.667 16.729,18.775 18.038,17.275C19.346,15.775 20,14.017 20,12C20,11.817 19.996,11.646 19.988,11.487C19.979,11.329 19.958,11.167 19.925,11L21.95,11C21.967,11.167 21.979,11.329 21.988,11.487C21.996,11.646 22,11.817 22,12C22,14.25 21.329,16.262 19.988,18.038C18.646,19.813 16.9,21.008 14.75,21.625L15.85,22.275L14.85,24Z" style="fill:rgb(232,234,237);fill-rule:nonzero;"/>
        </g>
    </g>
</svg>
